<svg xmlns="http://www.w3.org/2000/svg" xmlns:xlink="http://www.w3.org/1999/xlink" width="500" zoomAndPan="magnify" viewBox="0 0 375 374.999991" height="500" preserveAspectRatio="xMidYMid meet" version="1.0"><defs><g/><clipPath id="id1"><path d="M 132.265625 92.4375 L 242.515625 92.4375 L 242.515625 219.9375 L 132.265625 219.9375 Z M 132.265625 92.4375 " clip-rule="nonzero"/></clipPath></defs><g clip-path="url(#id1)"><path fill="#e8222e" d="M 237.105469 142.847656 C 239.15625 140.910156 242.523438 142.367188 242.523438 145.191406 L 242.523438 214.371094 C 242.523438 217.40625 240.066406 219.871094 237.035156 219.871094 L 137.757812 219.871094 C 134.726562 219.871094 132.269531 217.40625 132.269531 214.371094 L 132.269531 177.097656 C 132.269531 175.78125 132.769531 174.515625 133.671875 173.558594 L 139.0625 167.832031 L 139.972656 166.863281 C 143.621094 162.984375 148.441406 160.34375 153.707031 159.648438 C 159.953125 158.8125 167.789062 154.542969 174.648438 147.671875 C 185.558594 136.742188 189.890625 123.359375 184.320312 117.78125 C 178.75 112.199219 165.394531 116.542969 154.484375 127.472656 C 147.492188 134.472656 143.207031 142.480469 142.492188 148.796875 C 142.039062 152.796875 140.4375 156.546875 138.007812 159.710938 C 137.992188 159.730469 137.972656 159.753906 137.953125 159.777344 C 136.054688 162.117188 132.269531 160.734375 132.269531 157.722656 L 132.269531 98 C 132.269531 94.964844 134.726562 92.5 137.757812 92.5 L 237.035156 92.5 C 240.066406 92.5 242.523438 94.964844 242.523438 98 L 242.523438 124.824219 C 242.523438 126.132812 242.027344 127.394531 241.132812 128.347656 L 224.625 146.011719 C 220.992188 149.902344 216.140625 152.515625 210.851562 153.121094 C 204.546875 153.832031 196.550781 158.125 189.554688 165.125 L 175.730469 178.960938 C 174.699219 179.992188 174.699219 181.679688 175.726562 182.714844 L 176.378906 183.367188 C 177.371094 184.359375 178.972656 184.355469 179.964844 183.363281 L 196.925781 166.386719 C 198 165.3125 199.753906 165.167969 200.894531 166.175781 C 201.535156 166.742188 201.855469 167.53125 201.855469 168.3125 C 201.855469 169.046875 201.574219 169.769531 201.023438 170.320312 L 184.027344 187.335938 C 183.136719 188.230469 182.96875 189.65625 183.714844 190.679688 C 184.222656 191.375 184.996094 191.722656 185.769531 191.722656 C 186.414062 191.722656 187.066406 191.476562 187.5625 190.980469 L 204.523438 174.003906 C 205.597656 172.925781 207.347656 172.785156 208.488281 173.789062 C 209.132812 174.359375 209.449219 175.144531 209.457031 175.929688 C 209.453125 176.660156 209.175781 177.386719 208.621094 177.941406 L 191.574219 195.003906 C 190.585938 195.996094 190.582031 197.605469 191.570312 198.597656 L 192.140625 199.167969 C 193.171875 200.203125 194.855469 200.199219 195.886719 199.171875 L 209.710938 185.332031 C 216.578125 178.457031 220.839844 170.613281 221.675781 164.363281 C 222.375 159.082031 225.015625 154.253906 228.886719 150.605469 L 237.105469 142.847656 " fill-opacity="1" fill-rule="nonzero"/></g><g fill="#000000" fill-opacity="1"><g transform="translate(73.719771, 257.704468)"><g><path d="M 1.234375 0 C 0.984375 0 0.785156 -0.0820312 0.640625 -0.25 C 0.503906 -0.414062 0.457031 -0.640625 0.5 -0.921875 L 5.578125 -42.421875 C 5.617188 -42.710938 5.726562 -42.941406 5.90625 -43.109375 C 6.09375 -43.273438 6.3125 -43.359375 6.5625 -43.359375 L 16.109375 -43.359375 C 16.347656 -43.359375 16.539062 -43.273438 16.6875 -43.109375 C 16.832031 -42.941406 16.882812 -42.710938 16.84375 -42.421875 L 12.9375 -10.28125 C 12.863281 -10.070312 12.945312 -9.96875 13.1875 -9.96875 L 24.953125 -9.96875 C 25.242188 -9.96875 25.460938 -9.882812 25.609375 -9.71875 C 25.753906 -9.550781 25.804688 -9.328125 25.765625 -9.046875 L 24.78125 -0.921875 C 24.65625 -0.304688 24.300781 0 23.71875 0 Z M 1.234375 0 "/></g></g></g><g fill="#000000" fill-opacity="1"><g transform="translate(100.537962, 257.704468)"><g><path d="M 19.265625 0 C 18.679688 0 18.410156 -0.285156 18.453125 -0.859375 L 18.328125 -5.578125 C 18.367188 -5.660156 18.347656 -5.734375 18.265625 -5.796875 C 18.179688 -5.859375 18.101562 -5.890625 18.03125 -5.890625 L 12.640625 -5.890625 C 12.429688 -5.890625 12.285156 -5.785156 12.203125 -5.578125 L 11.03125 -0.859375 C 10.90625 -0.285156 10.550781 0 9.96875 0 L 0.5625 0 C -0.0625 0 -0.289062 -0.328125 -0.125 -0.984375 L 13.5 -42.546875 C 13.664062 -43.085938 14.039062 -43.359375 14.625 -43.359375 L 25.578125 -43.359375 C 26.160156 -43.359375 26.472656 -43.085938 26.515625 -42.546875 L 29.921875 -0.984375 L 29.921875 -0.859375 C 29.921875 -0.285156 29.609375 0 28.984375 0 Z M 14.734375 -15.109375 C 14.660156 -14.898438 14.722656 -14.796875 14.921875 -14.796875 L 17.84375 -14.796875 C 17.96875 -14.796875 18.066406 -14.898438 18.140625 -15.109375 L 17.90625 -26.578125 C 17.90625 -26.734375 17.851562 -26.800781 17.75 -26.78125 C 17.644531 -26.757812 17.59375 -26.691406 17.59375 -26.578125 Z M 14.734375 -15.109375 "/></g></g></g><g fill="#000000" fill-opacity="1"><g transform="translate(132.43488, 257.704468)"><g><path d="M 28.421875 -12.453125 C 27.972656 -8.441406 26.394531 -5.363281 23.6875 -3.21875 C 20.988281 -1.070312 17.738281 0 13.9375 0 L 1.234375 0 C 0.984375 0 0.785156 -0.0820312 0.640625 -0.25 C 0.503906 -0.414062 0.457031 -0.640625 0.5 -0.921875 L 5.578125 -42.421875 C 5.617188 -42.710938 5.726562 -42.941406 5.90625 -43.109375 C 6.09375 -43.273438 6.3125 -43.359375 6.5625 -43.359375 L 17.46875 -43.359375 C 21.425781 -43.359375 24.507812 -42.519531 26.71875 -40.84375 C 28.9375 -39.175781 30.046875 -36.648438 30.046875 -33.265625 C 30.046875 -32.847656 30.003906 -32.144531 29.921875 -31.15625 C 29.421875 -27.3125 27.910156 -24.460938 25.390625 -22.609375 C 25.140625 -22.484375 25.078125 -22.359375 25.203125 -22.234375 C 27.429688 -20.335938 28.546875 -17.675781 28.546875 -14.25 C 28.546875 -13.875 28.503906 -13.273438 28.421875 -12.453125 Z M 16.046875 -33.390625 C 15.835938 -33.390625 15.734375 -33.285156 15.734375 -33.078125 L 14.921875 -26.75 C 14.921875 -26.550781 15.003906 -26.453125 15.171875 -26.453125 L 15.546875 -26.453125 C 17.316406 -26.453125 18.367188 -27.609375 18.703125 -29.921875 L 18.765625 -30.71875 C 18.765625 -32.5 17.976562 -33.390625 16.40625 -33.390625 Z M 14.25 -9.96875 C 15.15625 -9.96875 15.90625 -10.398438 16.5 -11.265625 C 17.101562 -12.140625 17.40625 -13.378906 17.40625 -14.984375 C 17.40625 -15.929688 17.21875 -16.691406 16.84375 -17.265625 C 16.476562 -17.847656 15.960938 -18.140625 15.296875 -18.140625 L 14.1875 -18.140625 C 13.976562 -18.140625 13.875 -18.039062 13.875 -17.84375 L 12.9375 -10.28125 C 12.863281 -10.070312 12.945312 -9.96875 13.1875 -9.96875 Z M 14.25 -9.96875 "/></g></g></g><g fill="#000000" fill-opacity="1"><g transform="translate(161.482754, 257.704468)"><g><path d="M 28.609375 -34.3125 C 28.566406 -34.019531 28.453125 -33.789062 28.265625 -33.625 C 28.085938 -33.46875 27.851562 -33.390625 27.5625 -33.390625 L 16.046875 -33.390625 C 15.835938 -33.390625 15.734375 -33.285156 15.734375 -33.078125 L 14.984375 -27 C 14.898438 -26.789062 14.984375 -26.6875 15.234375 -26.6875 L 21.25 -26.6875 C 21.53125 -26.6875 21.742188 -26.601562 21.890625 -26.4375 C 22.035156 -26.28125 22.085938 -26.054688 22.046875 -25.765625 L 21.0625 -17.65625 C 20.9375 -17.03125 20.582031 -16.71875 20 -16.71875 L 14 -16.71875 C 13.789062 -16.71875 13.6875 -16.613281 13.6875 -16.40625 L 12.9375 -10.28125 C 12.863281 -10.070312 12.945312 -9.96875 13.1875 -9.96875 L 24.71875 -9.96875 C 25 -9.96875 25.210938 -9.882812 25.359375 -9.71875 C 25.503906 -9.550781 25.554688 -9.328125 25.515625 -9.046875 L 24.53125 -0.921875 C 24.488281 -0.640625 24.375 -0.414062 24.1875 -0.25 C 24 -0.0820312 23.757812 0 23.46875 0 L 1.234375 0 C 0.984375 0 0.785156 -0.0820312 0.640625 -0.25 C 0.503906 -0.414062 0.457031 -0.640625 0.5 -0.921875 L 5.578125 -42.421875 C 5.617188 -42.710938 5.726562 -42.941406 5.90625 -43.109375 C 6.09375 -43.273438 6.3125 -43.359375 6.5625 -43.359375 L 28.796875 -43.359375 C 29.085938 -43.359375 29.304688 -43.273438 29.453125 -43.109375 C 29.597656 -42.941406 29.648438 -42.710938 29.609375 -42.421875 Z M 28.609375 -34.3125 "/></g></g></g><g fill="#000000" fill-opacity="1"><g transform="translate(188.177069, 257.704468)"><g><path d="M 28.609375 -34.3125 C 28.566406 -34.019531 28.453125 -33.789062 28.265625 -33.625 C 28.085938 -33.46875 27.851562 -33.390625 27.5625 -33.390625 L 16.046875 -33.390625 C 15.835938 -33.390625 15.734375 -33.285156 15.734375 -33.078125 L 14.984375 -27 C 14.898438 -26.789062 14.984375 -26.6875 15.234375 -26.6875 L 21.25 -26.6875 C 21.53125 -26.6875 21.742188 -26.601562 21.890625 -26.4375 C 22.035156 -26.28125 22.085938 -26.054688 22.046875 -25.765625 L 21.0625 -17.65625 C 20.9375 -17.03125 20.582031 -16.71875 20 -16.71875 L 14 -16.71875 C 13.789062 -16.71875 13.6875 -16.613281 13.6875 -16.40625 L 11.765625 -0.921875 C 11.722656 -0.640625 11.609375 -0.414062 11.421875 -0.25 C 11.242188 -0.0820312 11.03125 0 10.78125 0 L 1.234375 0 C 0.984375 0 0.785156 -0.0820312 0.640625 -0.25 C 0.503906 -0.414062 0.457031 -0.640625 0.5 -0.921875 L 5.578125 -42.421875 C 5.617188 -42.710938 5.726562 -42.941406 5.90625 -43.109375 C 6.09375 -43.273438 6.3125 -43.359375 6.5625 -43.359375 L 28.796875 -43.359375 C 29.085938 -43.359375 29.304688 -43.273438 29.453125 -43.109375 C 29.597656 -42.941406 29.648438 -42.710938 29.609375 -42.421875 Z M 28.609375 -34.3125 "/></g></g></g><g fill="#000000" fill-opacity="1"><g transform="translate(214.128153, 257.704468)"><g><path d="M 13.25 0.5 C 9.582031 0.5 6.691406 -0.5 4.578125 -2.5 C 2.472656 -4.507812 1.421875 -7.226562 1.421875 -10.65625 C 1.421875 -11.0625 1.460938 -11.765625 1.546875 -12.765625 L 3.78125 -30.59375 C 4.269531 -34.644531 5.867188 -37.867188 8.578125 -40.265625 C 11.285156 -42.660156 14.660156 -43.859375 18.703125 -43.859375 C 22.335938 -43.859375 25.21875 -42.851562 27.34375 -40.84375 C 29.46875 -38.84375 30.53125 -36.128906 30.53125 -32.703125 C 30.53125 -32.285156 30.488281 -31.582031 30.40625 -30.59375 L 28.25 -12.765625 C 27.75 -8.710938 26.132812 -5.488281 23.40625 -3.09375 C 20.6875 -0.695312 17.300781 0.5 13.25 0.5 Z M 14.5 -9.46875 C 15.113281 -9.46875 15.632812 -9.71875 16.0625 -10.21875 C 16.5 -10.71875 16.78125 -11.398438 16.90625 -12.265625 L 19.203125 -31.09375 C 19.285156 -31.957031 19.179688 -32.632812 18.890625 -33.125 C 18.597656 -33.625 18.144531 -33.875 17.53125 -33.875 C 16.863281 -33.875 16.3125 -33.625 15.875 -33.125 C 15.445312 -32.632812 15.191406 -31.957031 15.109375 -31.09375 L 12.828125 -12.265625 C 12.785156 -12.097656 12.765625 -11.867188 12.765625 -11.578125 C 12.765625 -10.921875 12.914062 -10.40625 13.21875 -10.03125 C 13.53125 -9.65625 13.957031 -9.46875 14.5 -9.46875 Z M 14.5 -9.46875 "/></g></g></g><g fill="#000000" fill-opacity="1"><g transform="translate(243.176027, 257.704468)"><g><path d="M 13.25 0.5 C 9.582031 0.5 6.691406 -0.5 4.578125 -2.5 C 2.472656 -4.507812 1.421875 -7.226562 1.421875 -10.65625 C 1.421875 -11.0625 1.460938 -11.765625 1.546875 -12.765625 L 3.78125 -30.59375 C 4.269531 -34.644531 5.867188 -37.867188 8.578125 -40.265625 C 11.285156 -42.660156 14.660156 -43.859375 18.703125 -43.859375 C 22.335938 -43.859375 25.21875 -42.851562 27.34375 -40.84375 C 29.46875 -38.84375 30.53125 -36.128906 30.53125 -32.703125 C 30.53125 -32.285156 30.488281 -31.582031 30.40625 -30.59375 L 28.25 -12.765625 C 27.75 -8.710938 26.132812 -5.488281 23.40625 -3.09375 C 20.6875 -0.695312 17.300781 0.5 13.25 0.5 Z M 14.5 -9.46875 C 15.113281 -9.46875 15.632812 -9.71875 16.0625 -10.21875 C 16.5 -10.71875 16.78125 -11.398438 16.90625 -12.265625 L 19.203125 -31.09375 C 19.285156 -31.957031 19.179688 -32.632812 18.890625 -33.125 C 18.597656 -33.625 18.144531 -33.875 17.53125 -33.875 C 16.863281 -33.875 16.3125 -33.625 15.875 -33.125 C 15.445312 -32.632812 15.191406 -31.957031 15.109375 -31.09375 L 12.828125 -12.265625 C 12.785156 -12.097656 12.765625 -11.867188 12.765625 -11.578125 C 12.765625 -10.921875 12.914062 -10.40625 13.21875 -10.03125 C 13.53125 -9.65625 13.957031 -9.46875 14.5 -9.46875 Z M 14.5 -9.46875 "/></g></g></g><g fill="#000000" fill-opacity="1"><g transform="translate(272.22391, 257.704468)"><g><path d="M 1.234375 0 C 0.984375 0 0.785156 -0.0820312 0.640625 -0.25 C 0.503906 -0.414062 0.457031 -0.640625 0.5 -0.921875 L 5.578125 -42.421875 C 5.617188 -42.710938 5.726562 -42.941406 5.90625 -43.109375 C 6.09375 -43.273438 6.3125 -43.359375 6.5625 -43.359375 L 18.390625 -43.359375 C 22.066406 -43.359375 24.988281 -42.394531 27.15625 -40.46875 C 29.320312 -38.550781 30.40625 -35.984375 30.40625 -32.765625 C 30.40625 -32.390625 30.363281 -31.789062 30.28125 -30.96875 L 28 -12.390625 C 27.707031 -9.953125 26.890625 -7.789062 25.546875 -5.90625 C 24.203125 -4.03125 22.445312 -2.578125 20.28125 -1.546875 C 18.113281 -0.515625 15.707031 0 13.0625 0 Z M 12.9375 -10.28125 C 12.863281 -10.070312 12.945312 -9.96875 13.1875 -9.96875 L 14.0625 -10.03125 C 14.71875 -10.070312 15.300781 -10.378906 15.8125 -10.953125 C 16.332031 -11.535156 16.675781 -12.28125 16.84375 -13.1875 L 18.890625 -30.21875 L 18.953125 -30.90625 C 18.953125 -31.6875 18.765625 -32.296875 18.390625 -32.734375 C 18.023438 -33.171875 17.53125 -33.390625 16.90625 -33.390625 L 16.046875 -33.390625 C 15.835938 -33.390625 15.734375 -33.285156 15.734375 -33.078125 Z M 12.9375 -10.28125 "/></g></g></g></svg>